<svg version="1.0" xmlns="http://www.w3.org/2000/svg" width="933.333" height="933.333" viewBox="0 0 700 700"><path d="M129 242v14h80v227h31V256h80v-28H129v14zm238 113.4V483h46.1c50 0 58.5-.6 75.6-5.6 33.7-9.8 59.3-34.6 70.7-68.8 6-17.9 7-25.9 7.1-53.1 0-20.4-.3-26.6-1.8-33.5-3.1-14.6-6.6-24.7-12.3-35.9-12.7-25-32.5-42.1-58.9-51-18-6-21.3-6.3-76.2-6.8l-50.3-.5v127.6zm105-97.1c24.3 5.8 42.4 19.3 52.8 39.5 15.4 29.8 16.4 79.5 2.3 110.7-7.2 15.8-20.2 29.4-35.4 36.9-16.4 8.1-21.1 8.9-59.9 9.3l-33.8.5V255.8l33.8.5c25.5.4 35.3.9 40.2 2z"/></svg>